<?xml version="1.0" standalone="no"?>
<!DOCTYPE svg PUBLIC "-//W3C//DTD SVG 20010904//EN"
 "http://www.w3.org/TR/2001/REC-SVG-20010904/DTD/svg10.dtd">
<svg version="1.0" xmlns="http://www.w3.org/2000/svg"
 width="271.000000pt" height="181.000000pt" viewBox="0 0 271.000000 181.000000"
 preserveAspectRatio="xMidYMid meet">

<g transform="translate(0.000000,181.000000) scale(0.100000,-0.100000)"
fill="#000000" stroke="none">
<path d="M651 1763 c-26 -66 -621 -1737 -621 -1745 0 -5 63 -7 141 -6 l141 3
261 722 c144 397 265 719 268 715 4 -4 55 -142 114 -307 60 -165 110 -306 113
-312 3 -9 -34 -13 -153 -15 l-157 -3 -44 -120 c-24 -66 -44 -123 -44 -127 0
-5 112 -8 249 -8 l248 0 99 -272 99 -273 143 -3 c88 -1 143 1 140 7 -1 5 -145
406 -318 890 l-315 881 -176 0 -177 0 -11 -27z"/>
<path d="M1852 903 l3 -888 133 -3 132 -3 0 891 0 890 -135 0 -135 0 2 -887z"/>
<path d="M2430 900 l0 -890 130 0 130 0 0 890 0 890 -130 0 -130 0 0 -890z"/>
</g>
</svg>
