<?xml version="1.0" standalone="no"?>
<!DOCTYPE svg PUBLIC "-//W3C//DTD SVG 20010904//EN"
 "http://www.w3.org/TR/2001/REC-SVG-20010904/DTD/svg10.dtd">
<svg version="1.0" xmlns="http://www.w3.org/2000/svg"
 width="537.000000pt" height="232.000000pt" viewBox="0 0 537.000000 232.000000"
 preserveAspectRatio="xMidYMid meet">

<g transform="translate(0.000000,232.000000) scale(0.100000,-0.100000)"
fill="#000000" stroke="none">
<path d="M5006 2103 c-106 -169 -126 -213 -97 -213 16 0 81 74 134 152 26 38
47 64 47 56 -1 -39 -42 -204 -69 -273 -135 -349 -451 -592 -839 -644 -41 -5
-77 -13 -80 -17 -10 -10 151 5 228 21 396 84 716 424 792 843 l12 67 13 -90
c15 -103 34 -167 51 -173 18 -6 15 41 -14 237 -33 224 -32 221 -48 221 -7 0
-66 -84 -130 -187z"/>
<path d="M630 1554 c-148 -28 -286 -84 -375 -152 -65 -50 -71 -86 -24 -146
l21 -26 54 49 c72 66 114 95 114 80 0 -22 -251 -972 -287 -1088 -24 -76 -47
-128 -71 -159 l-35 -46 27 -23 c21 -17 39 -23 78 -23 43 0 54 4 83 33 44 44
88 186 145 469 9 47 16 59 33 62 12 2 55 9 96 15 209 32 430 196 521 385 50
106 64 170 57 267 -9 130 -61 221 -159 274 -47 26 -63 30 -153 31 -55 1 -111
0 -125 -2z m166 -105 c122 -58 148 -253 59 -447 -69 -151 -229 -279 -407 -325
-48 -13 -58 -13 -58 -2 0 41 52 279 130 597 23 95 28 133 21 147 -9 16 -6 21
17 30 85 34 166 34 238 0z"/>
<path d="M2907 1550 c-156 -27 -374 -129 -408 -191 -11 -22 -1 -64 27 -106
l15 -23 81 70 c83 72 103 83 94 53 -21 -72 -127 -471 -132 -501 -6 -33 -8 -34
-15 -14 -10 26 -10 26 -91 -36 -60 -46 -206 -132 -223 -132 -7 0 -12 25 -12
64 -1 151 -125 264 -263 241 -55 -9 -97 -40 -142 -105 -58 -82 -76 -121 -98
-211 -17 -71 -25 -88 -75 -144 -90 -103 -151 -145 -209 -145 -42 0 -61 27 -52
72 3 16 38 79 77 139 64 98 71 113 71 158 -1 53 -12 82 -45 119 -17 19 -31 22
-90 22 -67 0 -69 1 -63 23 34 111 6 187 -68 187 -27 0 -42 -9 -75 -46 -67 -72
-91 -155 -56 -194 14 -16 5 -39 -110 -267 -69 -138 -125 -258 -125 -267 0 -25
29 -31 50 -10 11 10 82 123 158 249 110 182 143 229 158 227 10 -1 43 -2 71
-2 48 0 53 -2 59 -26 7 -26 1 -38 -96 -224 -66 -126 -60 -192 23 -254 19 -14
42 -20 77 -19 66 1 123 35 226 135 l80 78 13 -51 c25 -95 82 -139 184 -139 79
0 152 34 201 94 34 41 96 159 96 183 0 7 21 21 46 32 67 30 177 106 246 170
39 36 59 49 55 36 -3 -11 -31 -119 -62 -240 -84 -328 -109 -400 -164 -458
l-26 -29 30 -24 c23 -19 42 -24 83 -24 47 0 58 4 83 31 36 39 77 164 120 371
l32 158 36 5 c179 27 300 75 413 166 111 89 177 182 225 316 22 63 25 84 21
170 -3 83 -8 108 -31 155 -35 72 -104 133 -170 153 -54 16 -170 18 -250 5z
m173 -96 c49 -21 70 -42 96 -99 42 -88 30 -229 -28 -357 -69 -150 -272 -303
-432 -326 -34 -4 -38 -3 -33 14 3 10 11 48 17 84 6 36 41 193 77 348 54 228
64 287 55 302 -10 17 -6 20 36 34 26 8 56 17 67 20 29 7 105 -4 145 -20z
m-977 -602 c23 -38 33 -133 20 -182 -9 -34 -10 -35 -62 -35 -44 1 -56 5 -83
32 -26 26 -32 42 -36 87 -5 65 9 94 60 119 48 24 79 18 101 -21z m-141 -301
c24 -11 61 -21 81 -21 44 0 45 -9 12 -66 -44 -76 -121 -112 -169 -80 -34 22
-50 85 -43 171 8 106 14 114 47 62 18 -29 43 -52 72 -66z"/>
<path d="M3586 1457 l-38 -12 -3 -75 c-2 -41 -22 -151 -44 -245 -22 -93 -72
-304 -110 -468 -39 -164 -71 -309 -71 -322 0 -13 10 -31 22 -39 24 -17 83 -22
92 -7 3 4 44 158 91 342 47 184 110 429 140 545 57 217 64 261 43 282 -15 15
-70 14 -122 -1z"/>
<path d="M4037 996 c-118 -43 -264 -208 -317 -358 -52 -148 -43 -276 24 -330
56 -46 200 -3 287 86 l46 47 12 -55 c15 -67 46 -96 103 -96 76 0 135 43 230
168 23 29 42 51 44 49 2 -1 -8 -45 -21 -97 -31 -119 -31 -130 -3 -130 30 0
106 38 117 58 4 10 23 79 41 155 31 134 34 141 90 216 68 90 125 134 167 129
26 -3 28 -7 31 -48 4 -51 -7 -112 -49 -256 -16 -56 -29 -118 -29 -138 0 -107
100 -157 209 -104 85 41 257 234 317 355 25 51 25 73 0 73 -7 0 -45 -42 -84
-92 -84 -111 -208 -234 -245 -243 -70 -18 -71 2 -9 235 23 85 42 173 42 195 0
43 -27 112 -53 133 -54 45 -163 9 -252 -83 l-54 -55 15 51 c9 28 13 57 10 64
-9 24 -63 28 -103 8 -37 -18 -38 -19 -68 -143 l-31 -126 -76 -95 c-137 -170
-210 -222 -238 -170 -17 32 -12 80 25 255 19 92 35 173 35 181 0 11 -11 15
-36 15 -31 0 -35 3 -29 18 16 38 17 63 1 87 -30 45 -90 62 -149 41z m31 -141
l-3 -45 34 6 33 7 -6 -34 c-17 -89 -50 -217 -62 -240 -29 -58 -132 -139 -176
-139 -8 0 -23 9 -33 20 -15 16 -17 32 -13 97 3 43 13 99 22 125 38 108 144
248 187 248 19 0 21 -5 17 -45z"/>
</g>
</svg>
