<?xml version="1.0" standalone="no"?>
<!DOCTYPE svg PUBLIC "-//W3C//DTD SVG 20010904//EN"
 "http://www.w3.org/TR/2001/REC-SVG-20010904/DTD/svg10.dtd">
<svg version="1.0" xmlns="http://www.w3.org/2000/svg"
 width="402.000000pt" height="402.000000pt" viewBox="0 0 402.000000 402.000000"
 preserveAspectRatio="xMidYMid meet">

<g transform="translate(0.000000,402.000000) scale(0.100000,-0.100000)"
fill="#000000" stroke="none">
<path d="M1855 3994 c-219 -25 -379 -60 -525 -114 -569 -210 -1020 -675 -1208
-1245 -160 -484 -128 -1014 87 -1470 330 -699 1033 -1145 1805 -1145 677 0
1305 346 1679 925 241 374 349 865 291 1317 -57 441 -252 836 -569 1153 -331
331 -743 526 -1214 574 -96 10 -277 12 -346 5z m370 -495 c478 -60 916 -380
1143 -834 42 -85 97 -252 123 -375 32 -151 32 -411 0 -560 -68 -321 -204 -575
-423 -792 -220 -218 -507 -363 -828 -419 -122 -22 -384 -17 -510 10 -321 67
-575 204 -795 429 -292 298 -457 731 -430 1132 26 387 184 732 457 996 343
333 775 475 1263 413z"/>
<path d="M970 2510 l0 -70 183 -2 182 -3 3 -472 2 -473 80 0 80 0 2 473 3 472
183 3 182 2 0 70 0 70 -450 0 -450 0 0 -70z"/>
<path d="M2010 2034 l0 -545 333 3 c315 3 334 4 378 24 67 31 124 87 156 152
l28 57 0 320 c0 304 -1 322 -21 365 -28 60 -69 107 -123 142 l-45 28 -353 0
-353 0 0 -546z m658 383 c18 -10 42 -32 52 -50 19 -30 20 -52 20 -322 0 -407
19 -385 -335 -385 l-235 0 0 383 c0 211 3 387 7 391 4 4 109 6 233 4 194 -3
230 -5 258 -21z"/>
</g>
</svg>
